<?xml version="1.0" encoding="utf-8"?>
<!-- Generator: Adobe Illustrator 24.3.0, SVG Export Plug-In . SVG Version: 6.00 Build 0)  -->
<svg version="1.1" id="Layer_1" xmlns="http://www.w3.org/2000/svg" xmlns:xlink="http://www.w3.org/1999/xlink" x="0px" y="0px"
	 viewBox="0 0 611.8 457.1" style="enable-background:new 0 0 611.8 457.1;" xml:space="preserve">
<style type="text/css">
	.st0{fill:#F2B6A9;}
	.st1{fill:#F9DAD4;}
	.st2{fill:#E66D54;}
	.st3{fill:#993C29;}
	.st4{fill:none;stroke:#993C29;stroke-width:13;stroke-linecap:round;stroke-miterlimit:10;}
</style>
<rect class="st0" width="611.8" height="458.1"/>
<circle class="st1" cx="305.9" cy="237.6" r="219.6"/>
<path class="st2" d="M463.5,121.4l-6-14.8c-1.3-2.9-3.4-4.6-7.7-4.6H258.2L247,72.2c-0.7-2-3.4-3.5-5.9-3.5h-80.3
	c-2.5,0-5.2,1.6-5.9,3.5l-8.2,31l-0.1,7.6h0.1v166c0,2.5,2.1,4.6,4.6,4.6h309.4c2.5,0,4.6-2.1,4.6-4.6c0,0,0-147.3,0-149.2
	C465.2,125.7,463.5,121.4,463.5,121.4z"/>
<path class="st2" d="M148.3,458.1l8.9-83.6c2-18.6,10.3-35.1,21.8-46.8c3.8-3.9,8-7.2,12.5-10c35.6-16.1,73.9-30.9,112.4-30.9
	c39.5,0,79.1,15.2,116.2,30.9c4.5,2.7,8.7,6.1,12.5,10c11.6,11.7,19.9,28.2,21.8,46.8l5.2,85.6L148.3,458.1z"/>
<circle class="st3" cx="239.8" cy="170" r="21"/>
<circle class="st3" cx="369.6" cy="170" r="21"/>
<path class="st4" d="M267.4,245.1c0,0,57.1,24.4,89.2-21.5"/>
<path class="st4" d="M315.2,213.5c-4.2,2.6-9.5,3.7-14.7,2.5s-9.5-4.4-12.1-8.6s-3.7-9.5-2.5-14.7"/>
</svg>
