<?xml version="1.0" encoding="utf-8"?>
<!-- Generator: Adobe Illustrator 24.3.0, SVG Export Plug-In . SVG Version: 6.00 Build 0)  -->
<svg version="1.1" id="Layer_1" xmlns="http://www.w3.org/2000/svg" xmlns:xlink="http://www.w3.org/1999/xlink" x="0px" y="0px"
	 viewBox="0 0 611.8 457.1" style="enable-background:new 0 0 611.8 457.1;" xml:space="preserve">
<style type="text/css">
	.st0{fill:#F2B6A9;}
	.st1{fill:#EC927F;}
	.st2{fill:#F9DAD4;}
	.st3{fill:#E66D54;}
	.st4{fill:#A1A6B2;}
</style>
<rect y="1" class="st0" width="611.8" height="458.1"/>
<circle class="st1" cx="305.8" cy="229.5" r="219.6"/>
<path class="st2" d="M530.6,129.1l-8.5-21.1c-1.8-4.2-4.8-6.6-11-6.6H237.9L222,59c-1-2.8-4.8-5-8.5-5H99c-3.6,0-7.4,2.2-8.5,5
	l-11.7,44.2L78.8,114h0.1v236.6c0,3.6,3,6.6,6.6,6.6h441c3.6,0,6.6-3,6.6-6.6c0,0,0-210,0-212.6
	C533.1,135.3,530.6,129.1,530.6,129.1z"/>
<rect x="105" y="163.3" class="st3" width="396.3" height="1"/>
<g>
	<rect x="105" y="181.2" class="st4" width="396.3" height="1"/>
	<rect x="105" y="199.4" class="st4" width="396.3" height="1"/>
	<rect x="105" y="217.7" class="st4" width="396.3" height="1"/>
	<rect x="105" y="235.9" class="st4" width="396.3" height="1"/>
	<rect x="105" y="254.2" class="st4" width="396.3" height="1"/>
	<rect x="105" y="272.5" class="st4" width="396.3" height="1"/>
	<rect x="105" y="290.7" class="st4" width="396.3" height="1"/>
	<rect x="105" y="309" class="st4" width="396.3" height="1"/>
	<rect x="105" y="327.2" class="st4" width="396.3" height="1"/>
	<rect x="105" y="345.5" class="st4" width="396.3" height="1"/>
</g>
<g>
	<path class="st3" d="M249.4,146.3c-3.8,7.1-3.6,8.3-4.3,9.1c-0.2,0.3-0.4,0.3-0.6,0.3c-1.1,0-3.1-2.3-3.1-3.7
		c0-4.2,16.9-31,18.2-31.9c0.1-0.1,0.4-0.1,0.6-0.1c0.4,0,0.8,0.1,1.1,0.1c5-2.1,7.9-3,11.1-3c2.8,0,3.8,1.3,5.2,3.4
		c0.9,1.3,1.9,2.1,1.9,4.1c0,6.5-10,12.4-18.6,15.6c1.6,1.4,4.6,4.3,7.7,7.9c2.1,2.4,3.6,4.4,3.6,5.3c0,0.6-0.4,0.9-0.9,1.4
		c-0.4,0.2-0.9,0.5-1.3,0.5c-0.8,0-1.8-1.7-7.4-6.3c-5.3-4.2-7.1-5.8-8.8-6.8c-0.7,0.1-1.4,0.2-2.1,0.3L249.4,146.3z M254.8,137.2
		c5.9,0,19.1-8.5,19.1-12.6c0-0.8-1.1-1.5-3.4-1.5c-2.7,0-6.8,1.5-9.5,3.2c-1.1,1.2-3.8,5.7-6.7,10.9H254.8z"/>
	<path class="st3" d="M283,150.3c5.4,0,8.3-3.4,11.9-7.7c0.8-1,1.3-1.5,1.8-1.5c0.8,0,1.2,0.8,1.2,1.7c0,0.6-0.6,1.5-1.5,2.8
		c-3.1,4.2-8.8,8.6-14.7,8.6c-4.3,0-7.3-2.9-7.3-7.1c0-8.1,8.8-17.3,14.9-17.3c2.1,0,3.5,1.6,3.5,3.6c0,4.4-6.3,10.2-13.6,15.2
		C279.7,149.6,281,150.3,283,150.3z M287.8,135.1c0-0.5-0.3-0.8-0.7-0.8c-1.7,0-7.7,5.5-8.4,11.1
		C283.1,142.1,287.8,137.3,287.8,135.1z"/>
	<path class="st3" d="M297.9,146.3c0,2.3,1.4,3.9,4.4,3.9c4.8,0,8.9-4.3,9.9-5.5c2.6-3,3-3.6,3.6-3.6c0.8,0,1.2,0.9,1.2,1.8
		s-1.6,3-3.3,4.9c-2.9,3.5-7,6.5-11.6,6.5c-6.4,0-8.6-5-8.6-9c0-8.1,10.9-17.3,14.5-17.3c1.5,0,4.4,0.6,4.8,2.5
		c0.8,0.5,0.8,1.4,0.8,1.9c0,1.9-1.5,3.5-3.9,6.6c-0.5,0.6-1.1,1.4-1.9,1.4c-1.5,0-2-1-2-1.8c0-2.5,2.2-4.9,3.5-6.2
		C302.8,135,297.9,141.8,297.9,146.3z"/>
	<path class="st3" d="M317.9,154.3c-3,0-4.6-2.6-4.6-5.3c0-2.1,0.5-3.5,1.2-5.2c-0.5,0-0.7,0-0.7-0.3c0-0.7,1.1-2.3,3.8-6.2
		c3.1-4.2,3.4-5.7,5.2-5.7c1.3,0,2.3,1.6,2.3,2.6c0,0.4-0.5,0.9-1.5,2.1c-2.2,2.8-5.9,7.6-5.9,11.2c0,1.6,0.6,1.9,1.2,1.9
		c1.4,0,3.2-0.9,5.7-3.6c2.9-3.2,3.6-4.6,4.5-4.6c0.8,0,1.2,0.8,1.2,1.7c0,0.8-0.8,2.1-3,4.6C324.2,151.1,321.1,154.3,317.9,154.3z
		 M324.7,126c0-2.3,2-3.9,4-3.9c1.2,0,2.3,0.8,2.3,2.5c0,2.2-2.1,4.2-4.1,4.2C325.6,128.7,324.7,127.6,324.7,126z"/>
	<path class="st3" d="M327.7,143.9c-0.2,0-0.6,0-0.6-0.6c0-0.8,2.2-3.1,5-7.6c1.2-1.9,2.1-3.6,2.6-4.1c0.5-0.4,1.5-1.2,3.3-1.2
		c0.6,0,1.2,0.8,1.2,1.2c0,0.8-0.6,0.9-2.7,5.4c2.6-2.5,5.2-4.8,8.1-4.8c3.2,0,5.5,2.8,5.5,6c0,6.8-8.9,16.3-15.3,16.3
		c-2.1,0-4.4-0.9-4.8-4.2c-2.9,4.7-5.7,9.9-7.8,14.2c-1.1,2.4-0.9,3.9-2.5,3.9c-1.2,0-2.8-2.4-2.8-3.6c0-2.9,4.9-10.2,10.1-19.5
		L327.7,143.9z M335.8,148.7c4.4,0,10.5-8,10.5-10.8c0-1.2-0.6-2.2-2-2.2c-3.4,0-7.6,4.5-11.7,10.3
		C332.9,148.3,334.6,148.7,335.8,148.7z"/>
	<path class="st3" d="M359.6,150.3c5.4,0,8.3-3.4,11.9-7.7c0.8-1,1.3-1.5,1.8-1.5c0.8,0,1.2,0.8,1.2,1.7c0,0.6-0.6,1.5-1.5,2.8
		c-3.1,4.2-8.8,8.6-14.7,8.6c-4.3,0-7.3-2.9-7.3-7.1c0-8.1,8.8-17.3,14.9-17.3c2.1,0,3.5,1.6,3.5,3.6c0,4.4-6.3,10.2-13.6,15.2
		C356.3,149.6,357.6,150.3,359.6,150.3z M364.4,135.1c0-0.5-0.3-0.8-0.7-0.8c-1.7,0-7.7,5.5-8.4,11.1
		C359.7,142.1,364.4,137.3,364.4,135.1z"/>
</g>
</svg>
