<?xml version="1.0" encoding="utf-8"?>
<!-- Generator: Adobe Illustrator 24.3.0, SVG Export Plug-In . SVG Version: 6.00 Build 0)  -->
<svg version="1.1" id="Layer_1" xmlns="http://www.w3.org/2000/svg" xmlns:xlink="http://www.w3.org/1999/xlink" x="0px" y="0px"
	 viewBox="0 0 537.2 157.7" style="enable-background:new 0 0 537.2 157.7;" xml:space="preserve">
<style type="text/css">
	.st0{fill:#E66D54;}
	.st1{fill:#FFFFFF;}
</style>
<g>
	<path class="st0" d="M536,39.1l-4.4-11c-0.9-2.2-2.5-3.4-5.7-3.4H383.6l-8.3-22.1c-0.5-1.5-2.5-2.6-4.4-2.6h-59.6
		c-1.9,0-3.9,1.2-4.4,2.6l-6.1,23l-0.1,5.6h0.1v123.1c0,1.9,1.5,3.4,3.4,3.4h229.6c1.9,0,3.4-1.5,3.4-3.4c0,0,0-109.3,0-110.7
		C537.3,42.3,536,39.1,536,39.1z"/>
</g>
<g>
	<path class="st0" d="M0,127.3V59.5h16v9.7c2.8-6.6,9.6-11,18.2-11c9.3,0,15.7,3.9,19.1,11.8c3.9-7.9,11.2-11.8,21.8-11.8
		c14.7,0,23.1,10.4,23.1,27.2v21.4c0,5.2,0.9,7.1,4.6,7.1c0.8,0,1.6-0.1,2.3-0.3v13.6c-1.6,0.5-3.9,0.8-7,0.8
		c-10.6,0-15.9-5.9-15.9-17.8V87.6c0-9.3-4.3-15.1-11.8-15.1s-13.1,6.6-13.1,15.7v39h-16V87.6c0-9.3-4.4-15.1-12.1-15.1
		c-7.5,0-13.2,6.6-13.2,15.7v39H0V127.3z"/>
	<path class="st0" d="M109.6,93.4c0-10.8,3.4-19.4,10-26c6.7-6.6,15.2-9.8,25.6-9.8c9.8,0,17.9,3.2,24.1,9.8
		c6.3,6.6,9.4,14.7,9.4,24.4c0,2-0.1,3.9-0.3,5.7h-52.8c0.5,10.8,8.5,17.8,20.5,17.8c7,0,13.1-2.6,18.3-7.8l9.7,9.4
		C166.4,125,157,129,145.6,129c-10.6,0-19.4-3.2-26-9.6c-6.6-6.3-10-14.8-10-25.4V93.4z M162.3,86.1c0-4-1.7-7.5-5.1-10.4
		c-3.4-3-7.3-4.4-12-4.4c-5,0-9.4,1.5-13.1,4.3c-3.6,2.8-5.7,6.3-6.1,10.5H162.3z"/>
	<path class="st0" d="M240.2,69.3v-9.8h16.1v47.4c0,5.8,1.3,7.9,5,7.9c0.9,0,2.2-0.1,3.4-0.3v13.1c-1.7,0.7-4.4,1.1-7.9,1.1
		c-3.9,0-7-0.7-9.4-2.2c-3-2-4.8-4.7-5.5-8.2c-4.7,7.1-12.5,10.6-23.3,10.6c-9.6,0-17.6-3.4-24.2-10.2c-6.5-6.9-9.7-15.2-9.7-25.3
		s3.2-18.4,9.7-25.2C201,61.3,209.1,58,218.6,58C229.4,58,237.6,62.8,240.2,69.3z M235.3,108.2c4-3.9,6.1-8.9,6.1-14.8
		s-2-10.9-6.1-14.8c-3.9-3.9-8.9-5.9-14.7-5.9s-10.5,2-14.4,5.9c-3.8,3.9-5.7,8.9-5.7,14.8s1.9,10.9,5.7,14.8
		c3.9,3.9,8.6,5.9,14.4,5.9C226.4,114.1,231.4,112.1,235.3,108.2z"/>
	<path class="st0" d="M272.4,33.5h16.2v71.6c0,6.6,2.2,9.4,8.1,9.4c1.9,0,3.5-0.1,4.8-0.5v14.4c-1.9,0.5-4.4,0.8-7.7,0.8
		c-14.3,0-21.4-7.3-21.4-21.9V33.5z"/>
	<path class="st1" d="M317.8,127.3V56.6h28.1c5.7,0,10.4,1.7,14.3,5.2c4,3.3,5.9,7.7,5.9,12.9c0,6.8-3.3,12.2-9,14.2
		c9,1.6,14.2,8.5,14.2,17.6c0,6-2,11.1-6.2,15c-4.1,4-9.1,5.9-15.3,5.9h-32V127.3z M333.1,84.8h10.2c4.5,0,7.6-3.1,7.6-7.5
		c0-4.2-3.1-7.3-7.5-7.3h-10.3L333.1,84.8L333.1,84.8z M333.1,113.8h13.5c5.3,0,9.1-3.8,9.1-8.6c0-4.9-3.9-8.3-9.2-8.3h-13.4V113.8z
		"/>
	<path class="st1" d="M386.9,66.1c7.4-7.1,16.3-10.7,26.8-10.7c10.4,0,19.4,3.6,26.7,10.7c7.4,7.1,11.1,15.7,11.1,26
		s-3.7,19-11,26.1c-7.3,7-16.2,10.6-26.8,10.6c-10.4,0-19.4-3.6-26.8-10.6c-7.3-7.1-11-15.8-11-26.1S379.6,73.2,386.9,66.1z
		 M397.9,108.1c4.3,4.3,9.5,6.4,15.7,6.4s11.4-2.1,15.6-6.5c4.4-4.4,6.5-9.7,6.5-15.9s-2.1-11.5-6.4-15.8c-4.3-4.4-9.5-6.6-15.7-6.6
		s-11.5,2.2-15.7,6.6c-4.3,4.4-6.4,9.6-6.4,15.8C391.5,98.5,393.7,103.8,397.9,108.1z"/>
	<path class="st1" d="M451.2,127.3L474.5,91l-22.1-34.4h17.5l14.3,22.5l14.2-22.5h17.3l-22,34.5l23.4,36.2h-17.2l-15.8-24.6
		l-15.8,24.6H451.2z"/>
</g>
</svg>
